<svg xmlns:xlink="http://www.w3.org/1999/xlink" xmlns="http://www.w3.org/2000/svg" version="1.1" style="display: block;" viewBox="170 160 1710 1710" width="1024" height="1024"><defs><linearGradient id="Gradient1" gradientUnits="userSpaceOnUse" x1="1208.01" y1="1534.99" x2="1187.64" y2="1343.26"><stop class="stop0" offset="0" stop-opacity="1" stop-color="rgb(246,170,0)"/><stop class="stop1" offset="1" stop-opacity="1" stop-color="rgb(255,202,1)"/></linearGradient></defs><path transform="translate(0,0)" fill="rgb(254,101,26)" d="M 1018.28 184.518 C 1234.13 178.71 1444.8 265.585 1601.37 412.384 C 1761.52 564.406 1854.81 773.764 1860.75 994.5 C 1867.44 1205.96 1779.18 1420.98 1633.77 1573.41 C 1476.12 1738.67 1258.43 1831.99 1030.83 1838.8 C 850.858 1839.14 675.431 1782.3 529.853 1676.49 C 495.83 1651.39 463.585 1623.97 433.348 1594.43 C 408.15 1570.22 382.518 1540.49 361.155 1512.95 C 253.561 1375.43 193.17 1206.89 188.943 1032.34 C 187.874 987.678 190.414 943.004 196.537 898.752 C 220.877 730.846 297.569 569.82 413.955 445.915 C 573.947 275.586 785.514 188.502 1018.28 184.518 z"/><path transform="translate(0,0)" fill="url(#Gradient1)" d="M 1024.21 1418.1 C 1108.84 1416.26 1191.8 1394.1 1266.08 1353.49 C 1278.98 1346.36 1292.75 1336.1 1305.95 1328.16 C 1332.37 1366.11 1356.2 1400.44 1385.46 1436.53 C 1282.24 1507.91 1178.89 1547.55 1052.25 1552.38 C 1044.58 1552.68 1032.02 1552.57 1024.81 1553.82 C 1025.61 1510.03 1025.01 1461.89 1024.21 1418.1 z"/><path transform="translate(0,0)" fill="rgb(252,29,30)" d="M 741.87 1324.99 C 755.423 1332.44 768.452 1343.63 782.995 1351.84 C 839.891 1383.95 900.866 1405.61 965.623 1414.91 C 980.924 1417.15 1008.38 1419.5 1024.21 1418.1 C 1025.01 1461.89 1025.61 1510.03 1024.81 1553.82 C 1011.24 1556.09 980.05 1552.94 965.421 1551.39 C 857.075 1538.98 753.698 1499.09 665.108 1435.49 C 678.877 1414.83 693.872 1394.66 707.961 1374.19 C 719.227 1357.82 730.163 1341.02 741.87 1324.99 z"/><path transform="translate(0,0)" fill="rgb(29,155,62)" d="M 1305.95 1328.16 C 1344.46 1300.08 1377.56 1265.27 1403.66 1225.4 C 1410.74 1214.44 1421.2 1195.03 1426.4 1183.14 C 1439.94 1152.18 1445.38 1124.37 1481.04 1111.88 C 1492.45 1107.85 1504.7 1106.75 1516.65 1108.71 C 1533.61 1111.6 1549.8 1121.53 1559.72 1135.62 C 1569.66 1149.94 1573.57 1167.59 1570.62 1184.76 C 1555.48 1270.02 1457.11 1386.49 1387.71 1435.03 C 1386.97 1435.54 1386.22 1436.04 1385.46 1436.53 C 1356.2 1400.44 1332.37 1366.11 1305.95 1328.16 z"/><path transform="translate(0,0)" fill="rgb(29,88,233)" d="M 665.108 1435.49 C 644.454 1416.98 624.623 1403.24 603.358 1381.76 C 549.936 1327.77 501.335 1264.01 481.819 1189.44 C 472.629 1154.33 493.96 1113.51 531.488 1108.16 C 591.584 1099.58 603.445 1147.64 624.213 1189.6 C 646.729 1235.09 698.543 1295.09 740.995 1324.4 L 741.87 1324.99 C 730.163 1341.02 719.227 1357.82 707.961 1374.19 C 693.872 1394.66 678.877 1414.83 665.108 1435.49 z"/></svg>