<svg version="1.1" xmlns="http://www.w3.org/2000/svg" style="display: block;" viewBox="0 0 2048 2048" width="1024" height="1024" preserveAspectRatio="none"><path transform="translate(0,0)" fill="#FFFFFF" d="M 502.364 518.165 C 508.029 518.012 512.101 518.1 517.102 520.853 C 540.285 533.618 563.412 547.52 586.303 560.82 L 728.22 642.954 L 875.201 727.694 L 924.925 756.328 C 935.566 762.464 963.606 776 964.796 788.15 C 968.176 822.665 966.841 860.494 966.814 895.279 L 966.739 1082.08 L 966.747 1583.16 C 966.773 1630.93 967.817 1699.61 965.634 1748.72 C 965.308 1756.05 954.369 1764.99 946.404 1768.76 C 937.253 1770.96 929.843 1770.37 921.466 1765.84 C 895.677 1751.91 869.612 1736.15 844.246 1721.44 L 685.017 1628.91 L 560.682 1557.05 C 479.592 1509.74 487.877 1525.99 487.835 1433.37 L 487.812 1303.31 L 487.511 698.19 L 487.282 591.947 C 487.223 574.279 486.944 556.496 487.346 538.844 C 487.604 527.529 492.41 522.095 502.364 518.165 z"/><path transform="translate(0,0)" fill="#FFFFFF" d="M 977.611 287.17 C 979.935 286.911 986.339 286.573 988.145 287.385 C 1008.44 296.505 1034.87 313.239 1053.69 324.305 L 1157.85 384.948 L 1459.88 560.82 L 1579.35 630.011 C 1598.67 641.172 1618.1 652.134 1637.42 663.296 C 1647.38 669.053 1655.54 679.9 1655.71 691.727 C 1656.19 724.592 1655.96 757.497 1655.95 790.37 L 1655.95 982.056 L 1656.06 1084.68 C 1656.01 1127.07 1662.8 1143.14 1621.22 1163.11 C 1614.09 1166.54 1602.62 1174.05 1595.43 1178.26 L 1494.48 1237.31 C 1410.42 1284.51 1328.27 1336.92 1243.99 1383.8 C 1232.05 1390.44 1209.64 1381.96 1207.32 1369.25 C 1201.88 1339.44 1204.3 1304.87 1204.33 1274 L 1203.97 1022.45 L 1203.98 953.215 C 1204 938.79 1204.48 923.03 1202.67 908.805 C 1202.06 903.961 1197.17 897.978 1193.38 895.249 C 1181.16 886.473 1165.65 878.035 1152.62 870.451 L 1043.91 807.229 C 1035.6 802.403 1027.09 797.667 1018.89 792.698 C 996.233 778.971 967.068 767.415 966.475 736.503 C 965.794 701.079 965.973 665.62 965.96 630.163 L 965.946 427.257 L 965.956 337.759 C 965.955 326.086 965.364 311.128 966.615 299.706 C 967.273 293.691 972.724 289.992 977.611 287.17 z"/></svg>
