<svg xmlns:xlink="http://www.w3.org/1999/xlink" xmlns="http://www.w3.org/2000/svg" version="1.1" style="display: block;" viewBox="160 125 710 775"><defs><linearGradient id="Gradient1" gradientUnits="userSpaceOnUse" x1="615.786" y1="350.837" x2="629.125" y2="330.761"><stop class="stop0" offset="0" stop-opacity="0.956863" stop-color="rgb(0,45,68)"></stop><stop class="stop1" offset="1" stop-opacity="1" stop-color="rgb(9,69,87)"></stop></linearGradient><linearGradient id="Gradient2" gradientUnits="userSpaceOnUse" x1="409.737" y1="162.896" x2="439.946" y2="198.525"><stop class="stop0" offset="0" stop-opacity="0.976471" stop-color="rgb(0,54,75)"></stop><stop class="stop1" offset="1" stop-opacity="1" stop-color="rgb(16,86,108)"></stop></linearGradient><linearGradient id="Gradient3" gradientUnits="userSpaceOnUse" x1="180.731" y1="664.794" x2="220.065" y2="609.315"><stop class="stop0" offset="0" stop-opacity="0.968627" stop-color="rgb(0,45,67)"></stop><stop class="stop1" offset="1" stop-opacity="1" stop-color="rgb(61,123,133)"></stop></linearGradient><linearGradient id="Gradient4" gradientUnits="userSpaceOnUse" x1="580.692" y1="410.761" x2="647.376" y2="431.26"><stop class="stop0" offset="0" stop-opacity="0.941176" stop-color="rgb(0,59,80)"></stop><stop class="stop1" offset="1" stop-opacity="1" stop-color="rgb(32,98,114)"></stop></linearGradient><linearGradient id="Gradient5" gradientUnits="userSpaceOnUse" x1="684.343" y1="378.7" x2="628.55" y2="431.414"><stop class="stop0" offset="0" stop-opacity="1" stop-color="rgb(25,88,106)"></stop><stop class="stop1" offset="1" stop-opacity="1" stop-color="rgb(88,151,162)"></stop></linearGradient><linearGradient id="Gradient6" gradientUnits="userSpaceOnUse" x1="279.856" y1="777.765" x2="312.986" y2="741.376"><stop class="stop0" offset="0" stop-opacity="0.980392" stop-color="rgb(0,50,74)"></stop><stop class="stop1" offset="1" stop-opacity="1" stop-color="rgb(47,110,122)"></stop></linearGradient><linearGradient id="Gradient7" gradientUnits="userSpaceOnUse" x1="260.685" y1="276.222" x2="300.792" y2="312.387"><stop class="stop0" offset="0" stop-opacity="0.980392" stop-color="rgb(3,67,91)"></stop><stop class="stop1" offset="1" stop-opacity="1" stop-color="rgb(35,101,112)"></stop></linearGradient><linearGradient id="Gradient8" gradientUnits="userSpaceOnUse" x1="795.42" y1="280.751" x2="645.169" y2="307.576"><stop class="stop0" offset="0" stop-opacity="0.984314" stop-color="rgb(0,62,84)"></stop><stop class="stop1" offset="1" stop-opacity="1" stop-color="rgb(24,89,107)"></stop></linearGradient><linearGradient id="Gradient9" gradientUnits="userSpaceOnUse" x1="572.624" y1="329.66" x2="577.974" y2="297.828"><stop class="stop0" offset="0" stop-opacity="1" stop-color="rgb(46,111,126)"></stop><stop class="stop1" offset="1" stop-opacity="1" stop-color="rgb(70,139,158)"></stop></linearGradient><linearGradient id="Gradient10" gradientUnits="userSpaceOnUse" x1="692.967" y1="508.106" x2="324.578" y2="408.469"><stop class="stop0" offset="0" stop-opacity="1" stop-color="rgb(100,168,182)"></stop><stop class="stop1" offset="1" stop-opacity="1" stop-color="rgb(124,202,220)"></stop></linearGradient><linearGradient id="Gradient11" gradientUnits="userSpaceOnUse" x1="406.944" y1="769.018" x2="443.511" y2="823.691"><stop class="stop0" offset="0" stop-opacity="1" stop-color="rgb(57,109,118)"></stop><stop class="stop1" offset="1" stop-opacity="1" stop-color="rgb(80,144,160)"></stop></linearGradient></defs><path transform="translate(0,0)" fill="rgb(158,211,215)" d="M 468.213 156.84 C 470.72 156.478 474.107 156.261 476.701 156.024 C 510.973 157.245 553.383 156.591 587.447 155.878 C 596.391 156.107 610.542 155.737 618.648 156.889 C 622.698 162.225 623.057 172.468 624.544 178.955 C 626.632 188.067 622.977 189.155 632.522 192.028 C 642.279 193.006 654.58 193.964 663.926 196.199 C 672.376 194.87 694.747 190.128 696.862 202.099 C 694.313 207.692 687.017 207.399 685.689 212.237 C 692.881 220.517 696.48 213.199 701.754 223.603 C 736.511 231.503 732.891 247.002 748.242 271.891 C 755.696 276.158 753.723 280.246 757.608 286.1 C 758.124 286.876 769.161 292.679 771 293.806 C 770.978 288.605 770.627 281.739 771.873 276.842 C 774.519 288.319 769.925 301.789 769.956 314.254 L 770.125 326.478 C 771.331 336.177 770.8 346.347 771.234 355.347 C 772.228 375.936 765.934 378.042 751.159 389.376 C 746.284 393.116 736.088 407.457 732.34 413.431 C 724.215 417.435 679.229 433.837 673.54 425.82 C 676.006 424.874 680.867 422.213 682.395 420.573 C 677.126 419.806 675.063 419.08 670.468 416.256 L 669.817 415.851 C 666.515 413.816 665.281 407.709 664.059 403.753 C 662.09 406.786 663.218 405.896 659.819 407.106 C 653.669 404.722 659.308 394.598 661.288 389.674 L 669.413 385.024 C 670.988 382.942 672.96 377.695 674.066 375.038 C 668.125 360.248 654.596 345.97 644.455 333.28 C 642.256 330.39 640.237 326.349 637.068 326.141 C 630.156 325.688 604.963 324.331 600.351 327.921 C 594.16 328.443 582.959 328.008 576.396 327.941 C 561.563 324.015 531.742 330.51 515.263 319.449 C 509.21 320.971 496.374 323.767 491.554 327.457 C 472.52 342.032 452.485 358.505 434.869 374.729 C 426.449 382.483 420.317 393.065 412.162 401.144 C 404.602 409.564 395.099 417.563 388.978 426.929 C 386.861 454.358 410.343 465.121 416.602 488.001 C 422.392 510.066 415.937 535.05 423.81 556.674 C 428.677 570.044 440.106 583.941 448.737 595.23 C 450.438 597.454 449.595 598.452 448.319 600.836 C 449.391 603.695 453.531 607.186 455.682 609.78 C 467.854 624.457 474.018 631.862 491.38 639.837 C 498.472 638.596 502.816 637.728 510.024 637.624 C 516.972 637.524 526.875 638.849 533.4 638.05 C 577.437 643.977 623.117 646.261 667.012 636.403 C 669.771 628.002 672.577 619.24 681.763 615.728 C 697.248 609.807 718.239 606.239 734.652 601.943 C 738.068 597.103 743.014 588.644 746.811 585.064 C 763.451 581.088 811.691 576.177 828.896 584.604 C 834.763 587.477 835.671 598.943 839.343 602.851 C 846.028 609.968 860.231 604.201 862.147 617.958 C 864.195 632.67 863.483 661.179 857.186 675.067 C 855.651 678.451 846.698 678.165 844.942 681.445 C 836.883 696.497 832.863 717.368 827.035 732.612 C 802.749 741.56 806.834 744.366 797.882 766.696 C 792.455 769.127 780.229 773.558 776.324 775.732 C 771.431 784.166 769.338 790.578 766.709 799.993 C 744.209 803.914 736.905 805.651 731.157 829.286 C 717.39 831.734 687.268 837.578 679.544 849.147 C 678.136 851.255 675.062 856.68 673.712 859.149 C 660.277 864.831 615.969 870.352 601.377 870.013 C 574.909 869.014 545.013 871.836 518.346 872.34 C 503.1 872.629 481.688 869.727 467.468 870.984 C 459.286 870.725 441.454 870.288 434.368 868.168 C 429.761 863.943 406.439 863.148 399.115 860.424 C 394.723 858.791 391.338 857.338 386.975 855.37 C 382.384 827.791 399.732 842.072 409.871 833.733 C 406.784 833.791 403.696 833.778 400.609 833.694 C 381.863 833.082 395.416 827.281 384.607 817.654 C 364.334 799.599 344.02 800.605 323.988 779.383 C 320.399 776.771 305.038 765.215 302.273 762.223 C 290.437 749.417 271.633 730.395 263.136 715.735 C 258.728 708.13 255.39 691.381 249.561 683.666 C 240.854 672.141 233.324 670.154 227.781 656.146 C 225.037 646.886 222.509 624.162 221.165 613.777 L 219.744 613.301 L 218.496 613.938 L 220.015 617.457 L 219.553 618.237 C 198.32 605.454 195.295 607.144 190.13 581.934 C 189.06 587.132 188.399 604.709 187.668 606.383 C 181.124 564.64 180.56 498.681 186.328 456.857 C 188.016 451.306 188.641 444.049 188.192 438.268 C 188.259 433.731 190.066 422.083 190.966 417.56 L 193.437 415.615 C 194.235 404.262 210.93 401.128 215.336 387.858 C 218.082 379.589 217.078 376.856 218.114 368.647 C 220.007 372.087 222.162 387.024 222.937 391.772 C 223.834 387.923 223.371 382.931 223.202 378.891 C 222.534 371.867 220.206 362.132 227.751 358.962 C 233.402 359.195 238.811 360.601 239.489 366.901 L 240.858 367.609 C 243.831 366.987 245.353 365.733 247.84 364.077 C 252.152 356.169 253.84 346.937 257.784 339.467 C 262.657 330.896 271.349 324.11 277.656 316.758 C 297.767 293.313 318.527 271.581 342.174 251.688 C 350.614 244.588 358.267 234.747 367.591 228.475 C 373.923 224.215 384.102 221.983 391.568 219.917 C 398.507 207.571 394.478 205.655 385.247 197.488 C 394.71 194.747 407.089 194.508 417.108 193.909 C 420.25 194.713 421.673 195.266 424.632 196.477 C 435.125 193.621 451.234 192.764 462.42 191.961 L 467.468 190.528 L 466.954 189.975 C 460.492 190.737 456.68 190.986 450.166 191.006 C 453 183.839 453.083 180.505 453.801 172.831 L 456.512 171.938 C 458.863 168.504 454.339 168.449 455.664 161.613 C 458.206 158.883 463.358 160.075 468.213 156.84 z"></path><path transform="translate(0,0)" fill="rgb(24,102,125)" d="M 307.735 395.77 L 308.793 398.324 L 311.335 398.234 C 312.5 406.417 310.392 408.227 316.271 412.643 C 317.412 413.495 318.562 414.335 319.723 415.16 C 322.521 423.765 321.075 461.689 320.754 472.017 C 319.917 499.553 319.633 527.102 319.904 554.649 C 319.937 566.417 320.295 598.979 322.416 609.19 C 343.541 615.515 345.48 621.334 355.69 640.259 C 366.365 660.048 390.859 680.392 414.581 673.559 C 416.449 673.036 417.923 669.545 418.357 667.787 C 420.114 660.116 420.345 656.435 419.04 648.703 C 412.937 642.72 397.283 640.76 388.548 639.142 C 387.274 631.809 387.591 626.796 385.361 618.504 C 382.105 606.394 362.442 587.867 359.055 577.019 C 352.729 552.156 352.385 499.843 361.862 476.63 C 367.884 461.88 381.485 445.106 388.978 426.929 C 386.861 454.358 410.343 465.121 416.602 488.001 C 422.392 510.066 415.937 535.05 423.81 556.674 C 428.677 570.044 440.106 583.941 448.737 595.23 C 450.438 597.454 449.595 598.452 448.319 600.836 C 449.391 603.695 453.531 607.186 455.682 609.78 C 467.854 624.457 474.018 631.862 491.38 639.837 C 498.472 638.596 502.816 637.728 510.024 637.624 C 516.972 637.524 526.875 638.849 533.4 638.05 C 577.437 643.977 623.117 646.261 667.012 636.403 C 669.771 628.002 672.577 619.24 681.763 615.728 C 697.248 609.807 718.239 606.239 734.652 601.943 C 738.068 597.103 743.014 588.644 746.811 585.064 C 763.451 581.088 811.691 576.177 828.896 584.604 C 834.763 587.477 835.671 598.943 839.343 602.851 C 846.028 609.968 860.231 604.201 862.147 617.958 C 864.195 632.67 863.483 661.179 857.186 675.067 C 855.651 678.451 846.698 678.165 844.942 681.445 C 836.883 696.497 832.863 717.368 827.035 732.612 C 802.749 741.56 806.834 744.366 797.882 766.696 C 792.455 769.127 780.229 773.558 776.324 775.732 C 771.431 784.166 769.338 790.578 766.709 799.993 C 744.209 803.914 736.905 805.651 731.157 829.286 C 717.39 831.734 687.268 837.578 679.544 849.147 C 678.136 851.255 675.062 856.68 673.712 859.149 C 660.277 864.831 615.969 870.352 601.377 870.013 C 574.909 869.014 545.013 871.836 518.346 872.34 C 503.1 872.629 481.688 869.727 467.468 870.984 C 459.286 870.725 441.454 870.288 434.368 868.168 C 429.761 863.943 406.439 863.148 399.115 860.424 C 394.723 858.791 391.338 857.338 386.975 855.37 C 382.384 827.791 399.732 842.072 409.871 833.733 C 406.784 833.791 403.696 833.778 400.609 833.694 C 381.863 833.082 395.416 827.281 384.607 817.654 C 364.334 799.599 344.02 800.605 323.988 779.383 C 330.126 779.62 352.114 800.161 361.251 800.778 C 363.514 800.93 366.963 803.072 368.99 804.328 C 371.184 803.274 367.683 804.207 369.521 799.814 C 373.622 799.106 376.036 798.131 379.961 797.072 C 390.568 794.21 385.605 776.124 396.989 773.045 C 407.444 771.197 425.118 771.72 435.791 772.211 C 446.538 771.469 447.644 768.921 455.405 761.338 C 456.246 763.675 450.33 768.293 450.316 775.457 C 449.657 808.86 481.281 800.616 503.482 799.929 C 509.242 799.751 537.067 797.913 539.981 794.492 C 542.237 782.83 552.715 774.48 529.75 772.78 C 491.574 769.953 490.85 775.098 469.659 744.352 C 446.895 737.15 416.57 745.018 401.832 720.434 C 400.107 717.556 396.477 713.707 394.123 711.339 C 382.602 707.78 370.002 707.211 359.056 702.452 C 354.178 693.335 353.711 688.104 352.218 678.061 C 344.754 675.17 333.353 673.184 325.348 671.59 C 322.895 662.895 322.124 651.73 319.698 642.023 C 298.954 628.454 288.847 612.949 291.45 587.17 L 290.562 584.105 C 262.355 564.998 253.935 512.007 271.208 483.651 C 275.686 476.3 284.324 466.745 289.834 459.342 C 290.134 454.488 290.465 449.637 290.826 444.787 C 290.848 421.246 291.941 413.642 307.735 395.77 z"></path><path transform="translate(0,0)" fill="rgb(113,177,186)" d="M 396.989 773.045 C 407.444 771.197 425.118 771.72 435.791 772.211 C 440.161 772.617 444.54 772.92 448.925 773.12 C 448.619 792.341 454.043 803.665 476.077 803.446 C 477.371 803.431 478.664 803.384 479.956 803.306 C 462.996 805.376 464.213 816.841 454.622 823.297 C 452.356 826.462 451.41 827.716 448.663 830.45 C 437.781 832.973 421.151 834.163 409.871 833.733 C 406.784 833.791 403.696 833.778 400.609 833.694 C 381.863 833.082 395.416 827.281 384.607 817.654 C 364.334 799.599 344.02 800.605 323.988 779.383 C 330.126 779.62 352.114 800.161 361.251 800.778 C 363.514 800.93 366.963 803.072 368.99 804.328 C 371.184 803.274 367.683 804.207 369.521 799.814 C 373.622 799.106 376.036 798.131 379.961 797.072 C 390.568 794.21 385.605 776.124 396.989 773.045 z"></path><path transform="translate(0,0)" fill="url(#Gradient11)" d="M 396.989 773.045 C 407.444 771.197 425.118 771.72 435.791 772.211 C 440.161 772.617 444.54 772.92 448.925 773.12 C 448.619 792.341 454.043 803.665 476.077 803.446 C 477.371 803.431 478.664 803.384 479.956 803.306 C 462.996 805.376 464.213 816.841 454.622 823.297 C 470.447 787.062 396.444 806.197 387.78 798.122 C 385.057 789.008 393.838 780.675 396.989 773.045 z"></path><path transform="translate(0,0)" fill="rgb(89,150,161)" d="M 290.826 444.787 C 291.218 458.775 294.398 476.339 297.65 490.182 C 299.8 499.33 293.165 560.096 294.767 563.793 L 299.522 564.465 C 302.545 561.446 301.472 560.157 305.453 557.194 C 305.835 560.549 297.71 569.05 294.984 571.396 C 293.642 576.616 292.463 581.876 291.45 587.17 L 290.562 584.105 C 262.355 564.998 253.935 512.007 271.208 483.651 C 275.686 476.3 284.324 466.745 289.834 459.342 C 290.134 454.488 290.465 449.637 290.826 444.787 z"></path><path transform="translate(0,0)" fill="rgb(113,177,186)" d="M 469.659 744.352 C 487.388 754.502 472.456 761.572 505.19 769.24 C 522.064 773.193 599.539 769.238 605.142 771.851 C 596.516 773.327 588.201 769.039 582.795 774.197 C 581.967 781.181 580.269 788.186 574.582 792.908 C 567.523 798.768 493.105 802.945 479.956 803.306 C 478.664 803.384 477.371 803.431 476.077 803.446 C 454.043 803.665 448.619 792.341 448.925 773.12 C 444.54 772.92 440.161 772.617 435.791 772.211 C 446.538 771.469 447.644 768.921 455.405 761.338 C 456.246 763.675 450.33 768.293 450.316 775.457 C 449.657 808.86 481.281 800.616 503.482 799.929 C 509.242 799.751 537.067 797.913 539.981 794.492 C 542.237 782.83 552.715 774.48 529.75 772.78 C 491.574 769.953 490.85 775.098 469.659 744.352 z"></path><path transform="translate(0,0)" fill="rgb(89,150,161)" d="M 422.636 673.601 C 428.044 672.963 430.334 672.811 435.757 673.078 L 436.804 673.295 C 454.891 677.193 452.979 687.879 469.009 688.095 L 470.23 689.367 L 469.418 691.303 C 456.362 701.208 441.517 705.419 425.17 705.174 C 412.527 704.985 417.629 687.341 417.606 679.28 C 417.598 676.479 420.674 674.919 422.636 673.601 z"></path><path transform="translate(0,0)" fill="rgb(2,71,93)" d="M 419.04 648.703 L 419.46 643.153 C 422.305 641.685 428.034 643.33 431.413 643.237 C 451.293 642.692 449.099 655.204 449.364 670.265 C 443.38 672.529 442.031 672.934 435.757 673.078 C 430.334 672.811 428.044 672.963 422.636 673.601 C 419.296 671.915 419.52 670.963 418.357 667.787 C 420.114 660.116 420.345 656.435 419.04 648.703 z"></path><path transform="translate(0,0)" fill="url(#Gradient10)" d="M 467.814 257.063 C 488.355 253.985 486.102 228.654 514.441 227.773 C 548.545 226.712 583.269 225.233 617.389 228.417 C 631.967 229.712 645.251 248.634 659.319 256.592 C 667.742 260.59 701.573 291.119 704.66 299.591 C 704.958 300.421 705.24 301.257 705.505 302.098 C 708.304 311.051 730.192 323.94 734.682 336.997 C 738.312 347.553 738.494 353.412 740.704 363.992 L 739.759 363.605 C 737.692 358.266 738.55 353.938 735.42 349.48 L 733.353 348.614 C 730.384 350.832 729.404 352.451 726.865 354.938 C 717.296 364.31 703.128 370.848 693.867 380.012 C 699.825 379.913 712.024 378.402 716.199 381.79 C 703.005 379.241 688.945 382.604 676.411 386.619 C 676.774 386.503 673.279 385.964 672.938 385.957 L 672.714 386.147 L 669.413 385.024 C 670.988 382.942 672.96 377.695 674.066 375.038 C 668.125 360.248 654.596 345.97 644.455 333.28 C 642.256 330.39 640.237 326.349 637.068 326.141 C 630.156 325.688 604.963 324.331 600.351 327.921 C 594.16 328.443 582.959 328.008 576.396 327.941 C 561.563 324.015 531.742 330.51 515.263 319.449 C 509.21 320.971 496.374 323.767 491.554 327.457 C 472.52 342.032 452.485 358.505 434.869 374.729 C 426.449 382.483 420.317 393.065 412.162 401.144 C 404.602 409.564 395.099 417.563 388.978 426.929 C 381.485 445.106 367.884 461.88 361.862 476.63 C 352.385 499.843 352.729 552.156 359.055 577.019 C 362.442 587.867 382.105 606.394 385.361 618.504 C 387.591 626.796 387.274 631.809 388.548 639.142 C 397.283 640.76 412.937 642.72 419.04 648.703 C 420.345 656.435 420.114 660.116 418.357 667.787 C 417.923 669.545 416.449 673.036 414.581 673.559 C 390.859 680.392 366.365 660.048 355.69 640.259 C 345.48 621.334 343.541 615.515 322.416 609.19 C 320.295 598.979 319.937 566.417 319.904 554.649 C 319.633 527.102 319.917 499.553 320.754 472.017 C 321.075 461.689 322.521 423.765 319.723 415.16 C 318.562 414.335 317.412 413.495 316.271 412.643 C 310.392 408.227 312.5 406.417 311.335 398.234 L 308.793 398.324 L 307.735 395.77 C 314.925 387.875 317.947 384.505 321.374 374.346 C 327.492 350.325 335.318 358.572 353.405 345.137 C 353.94 342.499 354.535 339.874 355.189 337.263 C 359.761 319.561 376.104 323.468 385.152 310.987 C 386.729 308.812 387.898 301.939 388.531 298.985 C 394.415 292.866 397.247 291.859 405 289.076 C 418.528 284.365 421.735 270.682 431.627 260.588 C 439.831 258.308 458.442 257.545 467.814 257.063 z"></path><path transform="translate(0,0)" fill="rgb(69,127,139)" d="M 467.814 257.063 C 488.355 253.985 486.102 228.654 514.441 227.773 C 548.545 226.712 583.269 225.233 617.389 228.417 C 631.967 229.712 645.251 248.634 659.319 256.592 C 656.376 257.732 655.878 257.923 653.442 259.908 L 652.042 254.019 C 651.313 253.862 650.957 253.613 650.266 253.939 C 635.312 260.981 553.062 258.057 530.302 258.516 C 523.146 258.66 511.699 257.573 505.303 260.785 C 498.982 263.958 497.067 272.519 493.924 278.293 C 482.368 272.198 486.814 265.81 467.814 257.063 z"></path><path transform="translate(0,0)" fill="rgb(2,60,79)" d="M 388.531 298.985 C 394.415 292.866 397.247 291.859 405 289.076 C 407.522 290.726 418.003 297.274 419.238 299.031 C 432.694 326.974 394.191 316.115 386.859 328.429 C 383.551 337.844 388.548 347.498 378.348 353.555 C 372.28 357.158 357.941 352.135 355.818 359.096 C 353.091 368.036 348.369 421.279 331.213 414.209 C 329.856 413.635 328.567 412.912 327.37 412.053 C 323.814 412.282 322.44 412.399 319.723 415.16 C 318.562 414.335 317.412 413.495 316.271 412.643 C 310.392 408.227 312.5 406.417 311.335 398.234 L 308.793 398.324 L 307.735 395.77 C 314.925 387.875 317.947 384.505 321.374 374.346 C 327.492 350.325 335.318 358.572 353.405 345.137 C 353.94 342.499 354.535 339.874 355.189 337.263 C 359.761 319.561 376.104 323.468 385.152 310.987 C 386.729 308.812 387.898 301.939 388.531 298.985 z"></path><path transform="translate(0,0)" fill="rgb(69,127,139)" d="M 321.374 374.346 C 326.912 377.035 327.75 376.236 330.279 381.87 C 333.423 388.872 330.72 405.37 327.37 412.053 C 323.814 412.282 322.44 412.399 319.723 415.16 C 318.562 414.335 317.412 413.495 316.271 412.643 C 310.392 408.227 312.5 406.417 311.335 398.234 L 308.793 398.324 L 307.735 395.77 C 314.925 387.875 317.947 384.505 321.374 374.346 z"></path><path transform="translate(0,0)" fill="url(#Gradient9)" d="M 515.263 319.449 C 544.755 307.517 565.559 282.141 601.52 298.262 C 612.527 303.196 641.716 321.968 644.455 333.28 C 642.256 330.39 640.237 326.349 637.068 326.141 C 630.156 325.688 604.963 324.331 600.351 327.921 C 594.16 328.443 582.959 328.008 576.396 327.941 C 561.563 324.015 531.742 330.51 515.263 319.449 z"></path><path transform="translate(0,0)" fill="rgb(24,102,125)" d="M 431.627 260.588 C 439.831 258.308 458.442 257.545 467.814 257.063 C 486.814 265.81 482.368 272.198 493.924 278.293 C 476.074 299.998 426.068 280.688 419.238 299.031 C 418.003 297.274 407.522 290.726 405 289.076 C 418.528 284.365 421.735 270.682 431.627 260.588 z"></path><path transform="translate(0,0)" fill="rgb(24,102,125)" d="M 659.319 256.592 C 667.742 260.59 701.573 291.119 704.66 299.591 C 704.958 300.421 705.24 301.257 705.505 302.098 C 703.759 311.879 699.383 325.501 686.644 324.606 C 675.472 319.984 678.387 295.703 673.581 292.866 C 666.182 288.499 642.582 288.596 635.743 279.526 C 634.501 272.777 647.887 262.054 653.442 259.908 C 655.878 257.923 656.376 257.732 659.319 256.592 z"></path><path transform="translate(0,0)" fill="rgb(89,150,161)" d="M 190.966 417.56 L 193.437 415.615 C 194.235 404.262 210.93 401.128 215.336 387.858 C 218.082 379.589 217.078 376.856 218.114 368.647 C 220.007 372.087 222.162 387.024 222.937 391.772 C 223.834 387.923 223.371 382.931 223.202 378.891 C 224.125 386.166 225.141 393.429 226.249 400.678 C 225.421 406.216 222.989 424.73 223.07 430.477 C 222.306 440.223 220.039 457.653 217.602 467.153 C 213.132 484.574 207.802 498.502 207.169 517.1 C 207.602 527.51 208.106 559.095 215.452 567.333 C 225.302 578.38 220.278 587.526 220.635 601.082 C 220.679 604.482 221.343 608.056 221.152 611.376 L 221.165 613.777 L 219.744 613.301 L 218.496 613.938 L 220.015 617.457 L 219.553 618.237 C 198.32 605.454 195.295 607.144 190.13 581.934 C 189.06 587.132 188.399 604.709 187.668 606.383 C 181.124 564.64 180.56 498.681 186.328 456.857 C 188.016 451.306 188.641 444.049 188.192 438.268 C 188.259 433.731 190.066 422.083 190.966 417.56 z"></path><path transform="translate(0,0)" fill="rgb(24,102,125)" d="M 190.966 417.56 L 193.437 415.615 C 194.235 404.262 210.93 401.128 215.336 387.858 C 218.082 379.589 217.078 376.856 218.114 368.647 C 220.007 372.087 222.162 387.024 222.937 391.772 C 223.834 387.923 223.371 382.931 223.202 378.891 C 224.125 386.166 225.141 393.429 226.249 400.678 C 225.421 406.216 222.989 424.73 223.07 430.477 C 218.515 443.92 202.577 444.203 196.816 458.628 C 194.808 463.657 194.029 468.171 192.909 473.403 C 192.953 468.271 192.483 465.321 191.742 460.33 C 188.109 470.034 193.042 576.228 190.13 581.934 C 189.06 587.132 188.399 604.709 187.668 606.383 C 181.124 564.64 180.56 498.681 186.328 456.857 C 188.016 451.306 188.641 444.049 188.192 438.268 C 188.259 433.731 190.066 422.083 190.966 417.56 z"></path><path transform="translate(0,0)" fill="rgb(69,127,139)" d="M 190.13 581.934 C 193.042 576.228 188.109 470.034 191.742 460.33 C 192.483 465.321 192.953 468.271 192.909 473.403 C 194.307 474.849 195.003 475.623 196.613 476.814 L 198.544 475.708 L 196.968 476.005 L 198.072 475.346 C 198.999 479.474 196.472 496.947 196.292 502.201 C 195.902 513.531 194.588 563.234 199.502 570.093 L 200.741 570.443 L 201.599 564.922 L 204.112 564.66 L 202.526 563.403 C 203.611 564.201 204.075 564.653 205.038 565.562 C 210.339 571.62 210.942 589.778 217.318 597.718 C 219.156 600.008 220.241 607.81 221.152 611.376 L 221.165 613.777 L 219.744 613.301 L 218.496 613.938 L 220.015 617.457 L 219.553 618.237 C 198.32 605.454 195.295 607.144 190.13 581.934 z"></path><path transform="translate(0,0)" fill="rgb(113,177,186)" d="M 205.038 565.562 C 205.27 563.426 203.501 554.145 203.169 551.481 C 200.37 529.05 199.442 506.988 204.586 484.829 C 208.532 486.417 202.683 509.283 207.169 517.1 C 207.602 527.51 208.106 559.095 215.452 567.333 C 225.302 578.38 220.278 587.526 220.635 601.082 C 220.679 604.482 221.343 608.056 221.152 611.376 C 220.241 607.81 219.156 600.008 217.318 597.718 C 210.942 589.778 210.339 571.62 205.038 565.562 z"></path><path transform="translate(0,0)" fill="rgb(69,127,139)" d="M 468.213 156.84 C 470.72 156.478 474.107 156.261 476.701 156.024 C 510.973 157.245 553.383 156.591 587.447 155.878 C 596.391 156.107 610.542 155.737 618.648 156.889 C 622.698 162.225 623.057 172.468 624.544 178.955 C 626.632 188.067 622.977 189.155 632.522 192.028 C 607.539 192.323 579.433 186.679 553.379 186.847 C 522.51 187.046 493.034 190.521 462.42 191.961 L 467.468 190.528 L 466.954 189.975 C 460.492 190.737 456.68 190.986 450.166 191.006 C 453 183.839 453.083 180.505 453.801 172.831 L 456.512 171.938 C 458.863 168.504 454.339 168.449 455.664 161.613 C 458.206 158.883 463.358 160.075 468.213 156.84 z"></path><path transform="translate(0,0)" fill="rgb(113,177,186)" d="M 770.125 326.478 C 771.331 336.177 770.8 346.347 771.234 355.347 C 772.228 375.936 765.934 378.042 751.159 389.376 C 746.284 393.116 736.088 407.457 732.34 413.431 C 724.215 417.435 679.229 433.837 673.54 425.82 C 676.006 424.874 680.867 422.213 682.395 420.573 C 677.126 419.806 675.063 419.08 670.468 416.256 L 669.817 415.851 C 666.515 413.816 665.281 407.709 664.059 403.753 C 662.09 406.786 663.218 405.896 659.819 407.106 C 653.669 404.722 659.308 394.598 661.288 389.674 L 669.413 385.024 L 672.714 386.147 C 671.315 393.402 665.644 404.607 672.909 411.522 C 683.114 421.235 700.913 413.124 712.718 411.346 C 714.451 411.085 722.994 413.531 725.138 414.117 C 734.012 410.39 741.327 394.88 748.094 387.754 C 750.969 384.726 759.358 380.241 760.792 378.584 C 773.987 363.34 768.878 343.898 770.125 326.478 z"></path><path transform="translate(0,0)" fill="rgb(69,127,139)" d="M 223.202 378.891 C 222.534 371.867 220.206 362.132 227.751 358.962 C 233.402 359.195 238.811 360.601 239.489 366.901 L 240.858 367.609 C 243.831 366.987 245.353 365.733 247.84 364.077 C 240.873 379.209 229.876 385.488 226.249 400.678 C 225.141 393.429 224.125 386.166 223.202 378.891 z"></path><path transform="translate(0,0)" fill="rgb(69,127,139)" d="M 417.108 193.909 C 420.25 194.713 421.673 195.266 424.632 196.477 C 409.934 204.699 408.771 212.68 391.568 219.917 C 398.507 207.571 394.478 205.655 385.247 197.488 C 394.71 194.747 407.089 194.508 417.108 193.909 z"></path><path transform="translate(0,0)" fill="rgb(69,127,139)" d="M 663.926 196.199 C 672.376 194.87 694.747 190.128 696.862 202.099 C 694.313 207.692 687.017 207.399 685.689 212.237 C 692.881 220.517 696.48 213.199 701.754 223.603 C 679.726 216.855 679.229 205.801 663.926 196.199 z"></path><path transform="translate(0,0)" fill="rgb(69,127,139)" d="M 748.242 271.891 C 755.696 276.158 753.723 280.246 757.608 286.1 C 758.124 286.876 769.161 292.679 771 293.806 C 770.978 288.605 770.627 281.739 771.873 276.842 C 774.519 288.319 769.925 301.789 769.956 314.254 C 767.916 299.529 755.903 289.475 748.242 271.891 z"></path><path transform="translate(0,0)" fill="rgb(2,71,93)" fill-opacity="0.988235" d="M 388.978 426.929 C 395.099 417.563 404.602 409.564 412.162 401.144 C 420.317 393.065 426.449 382.483 434.869 374.729 C 452.485 358.505 472.52 342.032 491.554 327.457 C 496.374 323.767 509.21 320.971 515.263 319.449 C 531.742 330.51 561.563 324.015 576.396 327.941 C 569.453 328.029 562.512 328.264 555.578 328.645 C 555.714 334.928 556.694 339.205 552.366 343.713 L 548.727 347.461 C 531.797 351.216 518.132 352.709 503.765 363.998 C 490.424 374.481 482.595 389.99 472.223 401.234 C 453.043 422.029 451.636 420.316 448.589 450.116 C 444.471 490.408 444.336 530.8 454.393 570.409 C 454.681 571.54 455.011 572.66 455.383 573.766 C 478.07 580.002 476.726 583.935 482.697 605.709 L 483.105 605.948 C 492.915 611.605 506.116 612.596 513.877 618.009 C 526.557 626.854 512.995 634.49 533.4 638.05 C 526.875 638.849 516.972 637.524 510.024 637.624 C 502.816 637.728 498.472 638.596 491.38 639.837 C 474.018 631.862 467.854 624.457 455.682 609.78 C 453.531 607.186 449.391 603.695 448.319 600.836 C 449.595 598.452 450.438 597.454 448.737 595.23 C 440.106 583.941 428.677 570.044 423.81 556.674 C 415.937 535.05 422.392 510.066 416.602 488.001 C 410.343 465.121 386.861 454.358 388.978 426.929 z"></path><path transform="translate(0,0)" fill="url(#Gradient8)" d="M 621.498 154.993 C 629.846 155.546 692.828 164.77 696.578 172.586 C 705.929 192.076 710.039 188.99 730.407 196.333 C 738.167 198.98 741.628 211.977 745 219.497 C 777.222 230.173 763.569 232.695 778.102 259.136 C 779.539 261.75 791.967 263.372 793.981 269.325 C 804.155 299.395 806.556 358.891 794.44 387.944 L 782.997 391.17 L 782.716 391.558 C 776.206 400.638 774.051 410.03 767.503 418.576 L 767.087 419.129 C 762.114 425.666 747.874 431.84 741.867 441.666 C 736.337 450.711 716.407 453.173 705.438 454.096 C 699.743 453.599 689.979 453.955 683.976 454.006 L 683.969 453.433 C 690.359 451.811 701.277 453.104 702.296 445.28 L 703.487 444.485 L 704.167 446.27 L 705.382 446.6 C 707.694 444.821 713.848 434.486 717.246 430.266 C 712.63 431.076 710.831 436.611 705.432 438.79 L 704.165 437.92 C 707.771 425.82 725.467 428.164 730.052 421.038 C 728.245 421.49 726.57 422.111 724.782 421.699 C 728.235 416.566 730.344 419.193 732.34 413.431 C 736.088 407.457 746.284 393.116 751.159 389.376 C 765.934 378.042 772.228 375.936 771.234 355.347 C 770.8 346.347 771.331 336.177 770.125 326.478 L 769.956 314.254 C 769.925 301.789 774.519 288.319 771.873 276.842 C 770.627 281.739 770.978 288.605 771 293.806 C 769.161 292.679 758.124 286.876 757.608 286.1 C 753.723 280.246 755.696 276.158 748.242 271.891 C 732.891 247.002 736.511 231.503 701.754 223.603 C 696.48 213.199 692.881 220.517 685.689 212.237 C 687.017 207.399 694.313 207.692 696.862 202.099 C 694.747 190.128 672.376 194.87 663.926 196.199 C 654.58 193.964 642.279 193.006 632.522 192.028 C 622.977 189.155 626.632 188.067 624.544 178.955 C 623.057 172.468 622.698 162.225 618.648 156.889 C 610.542 155.737 596.391 156.107 587.447 155.878 C 594.306 154.132 613.023 155.194 621.498 154.993 z"></path><path transform="translate(0,0)" fill="url(#Gradient7)" d="M 298.674 234.072 C 306.346 229.689 315.829 227.59 323.344 222.67 C 332.626 216.89 339.644 207.268 348.161 200.739 C 357.458 193.612 373.796 190.666 385.178 187.864 C 394.963 190.565 411.277 191.97 417.108 193.909 C 407.089 194.508 394.71 194.747 385.247 197.488 C 394.478 205.655 398.507 207.571 391.568 219.917 C 384.102 221.983 373.923 224.215 367.591 228.475 C 358.267 234.747 350.614 244.588 342.174 251.688 C 318.527 271.581 297.767 293.313 277.656 316.758 C 271.349 324.11 262.657 330.896 257.784 339.467 C 253.84 346.937 252.152 356.169 247.84 364.077 C 245.353 365.733 243.831 366.987 240.858 367.609 L 239.489 366.901 C 238.811 360.601 233.402 359.195 227.751 358.962 C 220.206 362.132 222.534 371.867 223.202 378.891 C 223.371 382.931 223.834 387.923 222.937 391.772 C 222.162 387.024 220.007 372.087 218.114 368.647 C 217.078 376.856 218.082 379.589 215.336 387.858 C 210.93 401.128 194.235 404.262 193.437 415.615 L 190.966 417.56 C 193.254 400.836 196.18 381.235 202.14 365.399 C 204.878 358.125 216.321 355.817 218.914 351.097 C 224.24 341.395 225.908 328.146 230.888 317.723 C 236.588 305.793 247.533 300.301 255.117 290.054 C 260.223 283.033 261.543 272.354 267.699 266.141 C 272.5 261.295 283.462 259.233 287.923 253.963 C 292.345 248.738 295 240.339 298.674 234.072 z"></path><path transform="translate(0,0)" fill="url(#Gradient6)" d="M 227.781 656.146 C 233.324 670.154 240.854 672.141 249.561 683.666 C 255.39 691.381 258.728 708.13 263.136 715.735 C 271.633 730.395 290.437 749.417 302.273 762.223 C 305.038 765.215 320.399 776.771 323.988 779.383 C 344.02 800.605 364.334 799.599 384.607 817.654 C 395.416 827.281 381.863 833.082 400.609 833.694 C 403.696 833.778 406.784 833.791 409.871 833.733 C 399.732 842.072 382.384 827.791 386.975 855.37 C 391.338 857.338 394.723 858.791 399.115 860.424 C 406.439 863.148 429.761 863.943 434.368 868.168 C 420.369 867.317 393.395 862.219 379.773 858.842 C 380.496 852.877 381.639 848.431 379.504 842.936 C 376.798 841.029 346.121 834.107 339.774 832.035 C 334.528 823.297 329.263 823.756 323.699 815.669 C 323.448 812.404 323.355 811.678 322.434 808.479 C 318.966 805.514 314.589 806.884 309.348 804.538 C 299.454 797.819 308.409 794.347 290.559 787.4 C 289.368 784.292 288.864 783.4 287.177 780.616 L 286.939 777.421 C 284.761 774.874 283.939 775.391 279.999 774.359 C 277.72 772.444 276.745 772.222 274.139 771.276 C 270.653 770.009 269.09 761.23 266.922 759.295 C 264.081 756.758 261.11 756.394 257.637 756.605 L 254.56 742.433 C 248.633 740.989 245.332 739.846 239.67 737.741 C 240.927 732.008 235.969 721.638 228.385 722.788 C 225.14 712.372 221.401 698.413 215.475 689.503 C 213.702 677.391 220.562 665.444 227.781 656.146 z"></path><path transform="translate(0,0)" fill="url(#Gradient5)" d="M 600.351 327.921 C 604.963 324.331 630.156 325.688 637.068 326.141 C 640.237 326.349 642.256 330.39 644.455 333.28 C 654.596 345.97 668.125 360.248 674.066 375.038 C 672.96 377.695 670.988 382.942 669.413 385.024 L 661.288 389.674 C 659.308 394.598 653.669 404.722 659.819 407.106 C 663.218 405.896 662.09 406.786 664.059 403.753 C 665.281 407.709 666.515 413.816 669.817 415.851 L 670.468 416.256 C 675.063 419.08 677.126 419.806 682.395 420.573 C 680.867 422.213 676.006 424.874 673.54 425.82 C 679.229 433.837 724.215 417.435 732.34 413.431 C 730.344 419.193 728.235 416.566 724.782 421.699 C 726.57 422.111 728.245 421.49 730.052 421.038 C 725.467 428.164 707.771 425.82 704.165 437.92 L 705.432 438.79 C 710.831 436.611 712.63 431.076 717.246 430.266 C 713.848 434.486 707.694 444.821 705.382 446.6 L 704.167 446.27 L 703.487 444.485 L 702.296 445.28 C 701.277 453.104 690.359 451.811 683.969 453.433 C 676.9 451.001 651.568 454.484 649.216 451.76 C 636.941 437.541 641.052 395.286 640.035 379.503 C 640.484 369.246 641.514 367.884 640.518 356.909 C 637.751 352.477 637.549 350.375 638.306 345.295 C 641.699 322.521 616.325 328.426 600.351 327.921 z"></path><path transform="translate(0,0)" fill="url(#Gradient4)" d="M 638.126 392.084 C 638.283 387.271 639.045 384.15 640.035 379.503 C 641.052 395.286 636.941 437.541 649.216 451.76 C 651.568 454.484 676.9 451.001 683.969 453.433 L 683.976 454.006 C 667.96 454.318 651.632 454.831 635.657 454.99 C 634.682 454.903 633.709 454.809 632.736 454.707 C 597.316 451.006 580.297 436.121 581.837 399.198 C 582.291 388.339 606.74 389.919 614.084 390.911 C 611.071 393.479 609.341 393.71 605.509 394.527 C 607.262 395.633 611.314 395.533 613.603 395.545 L 614.703 396.978 L 611.429 397.501 C 610.487 403.307 614.145 407.021 619.017 409.614 C 620.144 409.457 622.119 409.257 623.133 408.959 C 628.447 406.092 637.571 398.499 638.126 392.084 z"></path><path transform="translate(0,0)" fill="url(#Gradient3)" d="M 187.668 606.383 C 188.399 604.709 189.06 587.132 190.13 581.934 C 195.295 607.144 198.32 605.454 219.553 618.237 L 220.015 617.457 L 218.496 613.938 L 219.744 613.301 L 221.165 613.777 C 222.509 624.162 225.037 646.886 227.781 656.146 C 220.562 665.444 213.702 677.391 215.475 689.503 C 214.011 689.383 208.042 689.317 207.602 688.931 C 195.29 678.15 189.834 626.643 186.922 609.613 L 187.668 606.383 z"></path><path transform="translate(0,0)" fill="rgb(2,60,79)" fill-opacity="0.682353" d="M 467.468 870.984 C 481.688 869.727 503.1 872.629 518.346 872.34 C 545.013 871.836 574.909 869.014 601.377 870.013 C 596.815 870.615 590.783 870.567 587.57 873.212 C 583.431 882.292 585.943 880.929 578.611 889.741 C 560.645 893.245 485.996 894.41 470.916 886.007 L 469.743 884.231 C 473.568 880.548 477.308 876.779 480.962 872.926 C 477.192 872.457 470.96 871.872 467.468 870.984 z"></path><path transform="translate(0,0)" fill="rgb(2,60,79)" fill-opacity="0.92549" d="M 476.701 156.024 C 482.072 154.779 486.184 156.401 489.16 150.767 C 489.193 149.213 489.207 145.142 490.632 144.083 C 505.016 133.39 603.02 134.433 612.013 144.968 C 612.03 148.207 612.07 148.963 612.736 152.185 C 615.619 154.773 616.982 154.212 621.498 154.993 C 613.023 155.194 594.306 154.132 587.447 155.878 C 553.383 156.591 510.973 157.245 476.701 156.024 z"></path><path transform="translate(0,0)" fill="rgb(2,60,79)" fill-opacity="0.972549" d="M 172.836 454.951 L 175.899 454.903 C 179.648 458.573 179.493 461.593 182.656 461.933 C 184.659 459.936 184.948 459.344 186.328 456.857 C 180.56 498.681 181.124 564.64 187.668 606.383 L 186.922 609.613 C 184.727 606.044 178.616 604.062 177.913 602.366 C 160.275 559.846 166.473 498.699 172.836 454.951 z"></path><path transform="translate(0,0)" fill="url(#Gradient2)" d="M 385.178 187.864 C 389.511 184.986 391.551 176.666 394.534 173.596 C 404.508 163.331 454.913 157.502 468.213 156.84 C 463.358 160.075 458.206 158.883 455.664 161.613 C 454.339 168.449 458.863 168.504 456.512 171.938 L 453.801 172.831 C 453.083 180.505 453 183.839 450.166 191.006 C 456.68 190.986 460.492 190.737 466.954 189.975 L 467.468 190.528 L 462.42 191.961 C 451.234 192.764 435.125 193.621 424.632 196.477 C 421.673 195.266 420.25 194.713 417.108 193.909 C 411.277 191.97 394.963 190.565 385.178 187.864 z"></path><path transform="translate(0,0)" fill="url(#Gradient1)" d="M 576.396 327.941 C 582.959 328.008 594.16 328.443 600.351 327.921 C 616.325 328.426 641.699 322.521 638.306 345.295 C 637.549 350.375 637.751 352.477 640.518 356.909 C 627.116 353.042 616.001 350.22 602.3 345.848 C 600.726 337.83 606.136 339.812 606.75 332.354 C 603.867 329.85 604.606 330.572 600.483 329.774 C 593.546 329.302 586.787 328.584 579.88 329.328 L 576.325 328.784 L 576.396 327.941 z"></path><path transform="translate(0,0)" fill="rgb(2,71,93)" fill-opacity="0.439216" d="M 683.976 454.006 C 689.979 453.955 699.743 453.599 705.438 454.096 C 699.771 454.64 695.163 455.29 689.561 456.203 L 690.601 456.044 C 693.062 458.314 696.251 460.59 696.728 463.765 C 693.388 476.777 662.417 475.23 652.619 472.092 C 658.47 471.533 660.274 472.188 665.754 469.337 C 669.842 467.211 680.649 463.891 685.195 463.968 C 684.946 462.627 684.37 462.48 683.195 461.296 C 678.219 459.701 669.643 459.132 664.514 460.329 C 658.203 461.802 651.731 462.986 647.956 468.114 C 648.422 464.382 651.027 460.119 652.828 456.685 C 646.133 456.423 642.245 456.349 635.657 454.99 C 651.632 454.831 667.96 454.318 683.976 454.006 z"></path><path transform="translate(0,0)" fill="rgb(2,60,79)" fill-opacity="0.776471" d="M 555.578 328.645 C 562.512 328.264 569.453 328.029 576.396 327.941 L 576.325 328.784 C 572.076 329.03 564.65 328.768 561.573 331.428 C 559.93 337.356 558.417 333.532 559.65 337.172 C 565.377 340.775 577.457 337.714 585.995 338.21 C 591.215 338.416 600.138 340.057 603.389 335.641 C 602.913 332.022 602.945 332.969 600.483 329.774 C 604.606 330.572 603.867 329.85 606.75 332.354 C 606.136 339.812 600.726 337.83 602.3 345.848 C 590.706 342.925 560.145 343.535 548.727 347.461 L 552.366 343.713 C 556.694 339.205 555.714 334.928 555.578 328.645 z"></path><path transform="translate(0,0)" fill="rgb(2,71,93)" fill-opacity="0.85098" d="M 172.836 454.951 C 173.732 450.039 174.704 439.681 178.364 437.031 C 183.516 440.417 183.044 441.133 188.192 438.268 C 188.641 444.049 188.016 451.306 186.328 456.857 C 184.948 459.344 184.659 459.936 182.656 461.933 C 179.493 461.593 179.648 458.573 175.899 454.903 L 172.836 454.951 z"></path><path transform="translate(0,0)" fill="rgb(2,71,93)" fill-opacity="0.796078" d="M 617.704 391.333 C 624.07 391.213 632.116 390.705 638.126 392.084 C 637.571 398.499 628.447 406.092 623.133 408.959 C 619.062 407.798 617.088 406.451 616.011 402.372 C 617.43 398.123 618.216 397.07 620.756 393.318 L 617.704 391.333 z"></path><path transform="translate(0,0)" fill="rgb(2,71,93)" fill-opacity="0.356863" d="M 576.325 328.784 L 579.88 329.328 C 584.308 331.788 588.779 328.778 593.588 331.571 C 586.439 336.668 592.398 335.059 585.995 338.21 C 577.457 337.714 565.377 340.775 559.65 337.172 C 558.417 333.532 559.93 337.356 561.573 331.428 C 564.65 328.768 572.076 329.03 576.325 328.784 z"></path><path transform="translate(0,0)" fill="rgb(2,71,93)" fill-opacity="0.486275" d="M 647.956 468.114 C 651.731 462.986 658.203 461.802 664.514 460.329 C 669.643 459.132 678.219 459.701 683.195 461.296 C 684.37 462.48 684.946 462.627 685.195 463.968 C 680.649 463.891 669.842 467.211 665.754 469.337 C 660.274 472.188 658.47 471.533 652.619 472.092 C 651.271 471.515 649.122 469.231 647.956 468.114 z"></path><path transform="translate(0,0)" fill="rgb(2,60,79)" fill-opacity="0.972549" d="M 287.177 780.616 C 288.864 783.4 289.368 784.292 290.559 787.4 C 308.409 794.347 299.454 797.819 309.348 804.538 C 303.146 803.318 297.52 800.288 292.087 797.189 C 288.776 791.527 287.917 786.924 287.177 780.616 z"></path><path transform="translate(0,0)" fill="rgb(2,60,79)" fill-opacity="0.972549" d="M 257.637 756.605 C 261.11 756.394 264.081 756.758 266.922 759.295 C 269.09 761.23 270.653 770.009 274.139 771.276 C 276.745 772.222 277.72 772.444 279.999 774.359 C 266.092 773.178 261.775 768.999 257.637 756.605 z"></path><path transform="translate(0,0)" fill="rgb(2,60,79)" fill-opacity="0.45098" d="M 579.88 329.328 C 586.787 328.584 593.546 329.302 600.483 329.774 C 602.945 332.969 602.913 332.022 603.389 335.641 C 600.138 340.057 591.215 338.416 585.995 338.21 C 592.398 335.059 586.439 336.668 593.588 331.571 C 588.779 328.778 584.308 331.788 579.88 329.328 z"></path><path transform="translate(0,0)" fill="rgb(2,60,79)" fill-opacity="0.94902" d="M 614.084 390.911 L 617.704 391.333 L 620.756 393.318 C 618.216 397.07 617.43 398.123 616.011 402.372 C 617.088 406.451 619.062 407.798 623.133 408.959 C 622.119 409.257 620.144 409.457 619.017 409.614 C 614.145 407.021 610.487 403.307 611.429 397.501 L 614.703 396.978 L 613.603 395.545 C 611.314 395.533 607.262 395.633 605.509 394.527 C 609.341 393.71 611.071 393.479 614.084 390.911 z"></path><path transform="translate(0,0)" fill="rgb(2,60,79)" fill-opacity="0.964706" d="M 228.385 722.788 C 235.969 721.638 240.927 732.008 239.67 737.741 C 238.784 737.426 237.913 737.071 237.059 736.677 C 231.574 734.194 230.413 728.421 228.385 722.788 z"></path><path transform="translate(0,0)" fill="rgb(2,60,79)" fill-opacity="0.960784" d="M 323.699 815.669 C 329.263 823.756 334.528 823.297 339.774 832.035 C 328.186 828.243 326.25 827.758 323.699 815.669 z"></path></svg>